<svg width="74" height="30" viewBox="0 0 74 30" fill="none" xmlns="http://www.w3.org/2000/svg">
<path d="M58.0324 9.80692C57.8004 10.0069 57.8124 10.2709 57.7534 10.4939C56.1288 16.6079 54.5088 22.7229 52.8934 28.8389C52.8782 29.0129 52.8269 29.1818 52.743 29.3349C52.659 29.488 52.5441 29.6219 52.4056 29.7283C52.2671 29.8346 52.108 29.911 51.9384 29.9526C51.7688 29.9942 51.5924 30.0001 51.4204 29.9699C50.8784 29.9699 50.3354 29.9699 49.7934 29.9699C49.6438 29.9883 49.492 29.9767 49.3469 29.9357C49.2017 29.8948 49.0662 29.8254 48.9482 29.7316C48.8302 29.6378 48.732 29.5214 48.6594 29.3893C48.5868 29.2571 48.5413 29.1119 48.5254 28.9619C47.6974 25.4366 46.8748 21.9103 46.0574 18.3829C44.7741 12.8936 43.4911 7.40459 42.2084 1.91592C42.1435 1.66266 42.1099 1.40238 42.1084 1.14092C42.1024 1.00452 42.1239 0.868289 42.1717 0.74038C42.2194 0.612471 42.2925 0.495502 42.3865 0.396466C42.4805 0.29743 42.5935 0.218359 42.7187 0.163971C42.844 0.109584 42.9789 0.0809976 43.1154 0.0799223C43.7314 0.0519223 44.3504 0.0539223 44.9664 0.0799223C45.5504 0.101922 45.8884 0.44192 46.0434 1.11192C46.5768 3.42125 47.1101 5.73059 47.6434 8.03992C48.6581 12.4219 49.6738 16.8039 50.6904 21.1859C50.7298 21.3065 50.7762 21.4247 50.8294 21.5399C51.3914 19.2999 51.9294 17.1609 52.4654 15.0229C53.6307 10.3889 54.7974 5.75559 55.9654 1.12292C55.9796 0.962665 56.0268 0.807071 56.104 0.665898C56.1811 0.524725 56.2866 0.401017 56.4139 0.302529C56.5411 0.204041 56.6873 0.132898 56.8433 0.0935598C56.9993 0.0542211 57.1617 0.0475344 57.3204 0.0739217C57.8064 0.0739217 58.2924 0.0739217 58.7794 0.0739217C58.9148 0.0534544 59.053 0.0607933 59.1855 0.0954939C59.318 0.130194 59.442 0.191528 59.55 0.27575C59.658 0.359971 59.7476 0.465317 59.8136 0.585354C59.8795 0.705392 59.9203 0.837605 59.9334 0.973923C60.8894 4.79326 61.8447 8.61326 62.7994 12.4339C63.5441 15.4026 64.2924 18.3693 65.0444 21.3339C65.0492 21.4011 65.0678 21.4665 65.0989 21.5262C65.1301 21.5859 65.1731 21.6385 65.2254 21.6809C66.8081 14.8809 68.3894 8.08292 69.9694 1.28692C70.1994 0.296923 70.4694 0.0719201 71.4604 0.0699201C71.8524 0.0699201 72.2454 0.0699201 72.6384 0.0699201C73.6624 0.0769201 74.1234 0.662923 73.8924 1.68992C73.5924 3.00092 73.2844 4.30792 72.9794 5.61692L67.6024 28.6819C67.3564 29.7349 67.0654 29.9689 65.9794 29.9689H64.6334C63.7184 29.9689 63.3924 29.7249 63.1554 28.8459C62.0601 24.7726 60.9657 20.6993 59.8724 16.6259C59.2634 14.3629 58.6504 12.0989 58.0324 9.80692Z" fill="white"/>
<path d="M6.18587 26.002C6.45029 26.1065 6.73722 26.141 7.01887 26.102C11.0029 26.102 14.9865 26.102 18.9699 26.102C20.0699 26.102 20.4809 26.523 20.4829 27.633C20.4829 28.007 20.4929 28.381 20.4829 28.755C20.4903 28.9146 20.4643 29.0739 20.4066 29.2229C20.3489 29.3718 20.2608 29.5071 20.1479 29.62C20.0349 29.733 19.8997 29.8211 19.7507 29.8788C19.6018 29.9365 19.4424 29.9624 19.2829 29.955C13.5782 29.961 7.87353 29.961 2.16887 29.955C1.99011 29.9594 1.81276 29.9224 1.65069 29.8468C1.48863 29.7713 1.34624 29.6592 1.23468 29.5195C1.12312 29.3797 1.04541 29.2161 1.00762 29.0413C0.969833 28.8665 0.972997 28.6854 1.01687 28.512C1.39076 26.2257 2.49854 24.1232 4.17287 22.522C6.08434 20.6524 8.14924 18.9465 10.3459 17.422C11.9898 16.2476 13.5192 14.9207 14.9139 13.459C15.5684 12.8015 16.0761 12.0127 16.4036 11.1447C16.7311 10.2766 16.8709 9.34902 16.8139 8.42302C16.7843 7.58486 16.5115 6.77341 16.0287 6.08764C15.5459 5.40188 14.874 4.87143 14.0949 4.56102C12.819 3.91235 11.3691 3.68862 9.95695 3.92251C8.54485 4.15639 7.24451 4.83563 6.24586 5.86102C5.9113 6.23885 5.62232 6.6547 5.38486 7.10002C5.3195 7.27272 5.2144 7.4276 5.07805 7.55212C4.9417 7.67664 4.77794 7.76731 4.60003 7.81678C4.42213 7.86624 4.23508 7.87312 4.05402 7.83685C3.87296 7.80059 3.70299 7.72219 3.55787 7.60802C3.21787 7.40802 2.88386 7.20802 2.55286 6.99602C2.39268 6.92679 2.24979 6.82298 2.13444 6.69203C2.0191 6.56108 1.93415 6.40623 1.88569 6.23859C1.83724 6.07095 1.82647 5.89466 1.85416 5.72236C1.88185 5.55007 1.94732 5.38603 2.04587 5.24202C2.99126 3.34742 4.58211 1.85268 6.53187 1.02702C8.08427 0.31327 9.77853 -0.0385131 11.4868 -0.00178806C13.195 0.0349369 14.8726 0.459213 16.3929 1.23902C19.3759 2.70802 20.6849 5.31702 20.8219 8.56502C20.8745 10.1691 20.56 11.764 19.9025 13.2281C19.245 14.6921 18.2618 15.9867 17.0279 17.013C15.1885 18.6005 13.2597 20.0813 11.2509 21.448C9.49711 22.6298 7.89745 24.0256 6.48887 25.603C6.39187 25.719 6.30787 25.839 6.18587 26.002Z" fill="white"/>
<path d="M31.6809 0.0698242H39.1979C40.1979 0.0698242 40.5819 0.452825 40.5909 1.45782C40.5909 1.79116 40.5909 2.12749 40.5909 2.46682C40.5839 3.47682 40.2059 3.86082 39.2049 3.86682C35.6515 3.86682 32.0985 3.86682 28.5459 3.86682C28.0789 3.86682 27.6099 3.89182 27.1459 3.85982C26.7459 3.83182 26.6459 3.97682 26.6459 4.35982C26.6669 5.92982 26.6699 7.50082 26.6459 9.07182C26.6389 9.48782 26.7869 9.55482 27.1579 9.55082C28.9909 9.53382 30.8239 9.50482 32.6579 9.55082C35.8309 9.63182 38.6139 10.6248 40.5629 13.2828C42.0036 15.3644 42.6322 17.9014 42.3299 20.4148C42.2446 22.2913 41.6575 24.1105 40.6299 25.6828C39.7988 26.8754 38.7136 27.8688 37.4522 28.5913C36.1909 29.3137 34.785 29.7473 33.3359 29.8608C32.4441 29.9595 31.5466 29.9952 30.6499 29.9678C30.4858 29.9827 30.3204 29.9627 30.1646 29.909C30.0088 29.8553 29.8662 29.7692 29.7461 29.6564C29.626 29.5436 29.5311 29.4066 29.4678 29.2545C29.4046 29.1023 29.3742 28.9385 29.3789 28.7738C29.3482 28.2696 29.3482 27.764 29.3789 27.2598C29.3738 27.0993 29.4034 26.9395 29.4655 26.7914C29.5277 26.6433 29.621 26.5103 29.7391 26.4014C29.8572 26.2925 29.9973 26.2103 30.15 26.1603C30.3026 26.1104 30.4642 26.0938 30.6239 26.1118C31.67 26.147 32.7165 26.056 33.7409 25.8408C34.997 25.5774 36.1296 24.9029 36.9596 23.9239C37.7895 22.9449 38.2696 21.7172 38.3239 20.4348C38.4509 19.3552 38.3608 18.2611 38.0589 17.2168C37.7352 16.1934 37.1127 15.2902 36.2716 14.6234C35.4305 13.9565 34.4091 13.5565 33.3389 13.4748C32.746 13.3951 32.1479 13.3616 31.5499 13.3748C29.0439 13.3815 26.5382 13.3815 24.0329 13.3748C23.0969 13.3748 22.7139 12.9748 22.7139 12.0378C22.7139 8.50449 22.7139 4.97116 22.7139 1.43782C22.7139 0.423824 23.0709 0.074822 24.1079 0.073822L31.6809 0.0698242Z" fill="white"/>
</svg>
